<mxfile host="app.diagrams.net" agent="Mozilla/5.0 (Windows NT 10.0; Win64; x64) AppleWebKit/537.36 (KHTML, like Gecko) Chrome/136.0.0.0 Safari/537.36" version="27.0.5">
  <diagram name="第 1 页" id="4LYmj-1Jbl8mPOGYtfoL">
    <mxGraphModel dx="1244" dy="605" grid="1" gridSize="10" guides="1" tooltips="1" connect="1" arrows="1" fold="1" page="1" pageScale="1" pageWidth="5000" pageHeight="5000" math="0" shadow="0">
      <root>
        <mxCell id="0" />
        <mxCell id="1" parent="0" />
        <mxCell id="EIx_iSsX4KUcyh-g0H0c-1" value="上位机LS平板" style="rounded=1;whiteSpace=wrap;html=1;" vertex="1" parent="1">
          <mxGeometry x="440" y="200" width="210" height="60" as="geometry" />
        </mxCell>
        <mxCell id="EIx_iSsX4KUcyh-g0H0c-2" value="下位机LS控制器" style="rounded=1;whiteSpace=wrap;html=1;" vertex="1" parent="1">
          <mxGeometry x="440" y="360" width="210" height="60" as="geometry" />
        </mxCell>
        <mxCell id="EIx_iSsX4KUcyh-g0H0c-3" value="单体电机1" style="rounded=1;whiteSpace=wrap;html=1;" vertex="1" parent="1">
          <mxGeometry x="350" y="560" width="90" height="60" as="geometry" />
        </mxCell>
        <mxCell id="EIx_iSsX4KUcyh-g0H0c-4" value="单体电机2" style="rounded=1;whiteSpace=wrap;html=1;" vertex="1" parent="1">
          <mxGeometry x="460" y="560" width="90" height="60" as="geometry" />
        </mxCell>
        <mxCell id="EIx_iSsX4KUcyh-g0H0c-5" value="单体电机3" style="rounded=1;whiteSpace=wrap;html=1;" vertex="1" parent="1">
          <mxGeometry x="570" y="560" width="90" height="60" as="geometry" />
        </mxCell>
        <mxCell id="EIx_iSsX4KUcyh-g0H0c-6" value="" style="endArrow=none;dashed=1;html=1;rounded=1;curved=0;strokeWidth=6;" edge="1" parent="1">
          <mxGeometry width="50" height="50" relative="1" as="geometry">
            <mxPoint x="680" y="589.5" as="sourcePoint" />
            <mxPoint x="780" y="590" as="targetPoint" />
          </mxGeometry>
        </mxCell>
        <mxCell id="EIx_iSsX4KUcyh-g0H0c-7" value="单体电机18" style="rounded=1;whiteSpace=wrap;html=1;" vertex="1" parent="1">
          <mxGeometry x="790" y="560" width="90" height="60" as="geometry" />
        </mxCell>
        <mxCell id="EIx_iSsX4KUcyh-g0H0c-8" value="" style="endArrow=classic;html=1;rounded=0;" edge="1" parent="1">
          <mxGeometry width="50" height="50" relative="1" as="geometry">
            <mxPoint x="480" y="260" as="sourcePoint" />
            <mxPoint x="480" y="360" as="targetPoint" />
          </mxGeometry>
        </mxCell>
        <mxCell id="EIx_iSsX4KUcyh-g0H0c-9" value="①" style="text;html=1;align=center;verticalAlign=middle;whiteSpace=wrap;rounded=0;rotation=0;fontSize=16;" vertex="1" parent="1">
          <mxGeometry x="450" y="280" width="30" height="30" as="geometry" />
        </mxCell>
        <mxCell id="EIx_iSsX4KUcyh-g0H0c-10" value="" style="endArrow=classic;html=1;rounded=0;exitX=0.376;exitY=-0.033;exitDx=0;exitDy=0;exitPerimeter=0;" edge="1" parent="1" source="EIx_iSsX4KUcyh-g0H0c-2">
          <mxGeometry width="50" height="50" relative="1" as="geometry">
            <mxPoint x="520" y="350" as="sourcePoint" />
            <mxPoint x="520" y="260" as="targetPoint" />
          </mxGeometry>
        </mxCell>
        <mxCell id="EIx_iSsX4KUcyh-g0H0c-11" value="②" style="text;html=1;align=center;verticalAlign=middle;whiteSpace=wrap;rounded=0;rotation=0;strokeWidth=1;fontSize=16;" vertex="1" parent="1">
          <mxGeometry x="490" y="280" width="30" height="30" as="geometry" />
        </mxCell>
        <mxCell id="EIx_iSsX4KUcyh-g0H0c-12" value="&lt;font style=&quot;font-size: 14px;&quot;&gt;鉴权流程：&lt;br&gt;①上位机发送随机数（当前作业信息、经纬度、时间、开机时长等信息特征数字组合）及验证公式给下位机；&lt;br&gt;②下位机根据上位机下发的随机数及验证公式组合运算，反馈计算结果给上位机；&lt;br&gt;③平板根据电机数量，生成随机数&lt;/font&gt;" style="text;html=1;align=left;verticalAlign=middle;whiteSpace=wrap;rounded=0;" vertex="1" parent="1">
          <mxGeometry x="40" y="170" width="320" height="420" as="geometry" />
        </mxCell>
        <mxCell id="EIx_iSsX4KUcyh-g0H0c-13" value="" style="endArrow=classic;html=1;rounded=0;" edge="1" parent="1">
          <mxGeometry width="50" height="50" relative="1" as="geometry">
            <mxPoint x="560" y="260" as="sourcePoint" />
            <mxPoint x="560" y="360" as="targetPoint" />
          </mxGeometry>
        </mxCell>
        <mxCell id="EIx_iSsX4KUcyh-g0H0c-14" value="③" style="text;html=1;align=center;verticalAlign=middle;whiteSpace=wrap;rounded=0;rotation=0;strokeWidth=1;fontSize=16;" vertex="1" parent="1">
          <mxGeometry x="530" y="280" width="30" height="30" as="geometry" />
        </mxCell>
      </root>
    </mxGraphModel>
  </diagram>
</mxfile>
